<svg xmlns="http://www.w3.org/2000/svg" viewBox="0 0 420 420"><g fill="none" stroke-width="2"><path stroke="#6a696a" d="M192 23.79q1.89.1 1.46 1.49a.93.79 1.7 0 1-.69.55q-5.53.99-11.12 1.32c-6 .35-10.66 3.01-17.17 3.94q-3.02.43-4.35.78-22.69 5.88-40.79 15.48-8.75 4.64-21.27 13.72c-2.56 1.86-5.13 4.69-8.66 6.9q-2.99 1.87-6.07 4.63c-29.05 26.12-49.59 60.68-58.09 98.69" vector-effect="non-scaling-stroke"/><path stroke="#bdbabe" d="M25.25 171.29q-1.38 2.15-.96 4.71" vector-effect="non-scaling-stroke"/><path stroke="#6a696a" d="M24.29 176q-1.26 7.06-1.51 14.22c-.06 1.84-1.02 2.55-2.74 2.53" vector-effect="non-scaling-stroke"/><path stroke="#767777" d="m226 24.04-.63 1.56a.37.37 12.8 0 0 .32.5q10.12.69 20.06 2.61" vector-effect="non-scaling-stroke"/><path stroke="#6a696a" d="M245.75 28.71q4.6 1.55 9.38 2.34c5.25.88 9.51 2.19 14.91 4.4q2.46 1.01 6.01 2.01 7.43 2.1 21.95 9.83" vector-effect="non-scaling-stroke"/><path stroke="#535154" d="M298 47.29c6.27 4.25 12.81 7.78 19.07 12.2q3.96 2.79 8.09 5.35" vector-effect="non-scaling-stroke"/><path stroke="#656365" d="M325.16 64.84q13.65 11.06 24.61 22.88c17.83 19.24 30.45 43.49 39.24 68.2 1.46 4.11 2.17 9.27 3.73 13.83q.9 2.63 1.73 14.48a.32.31 72.5 0 0 .48.26l2.09-1.24m.17 48.5c-2.24.66-1.59 2.15-1.82 3.82q-2.22 15.81-6.6 31.18" vector-effect="non-scaling-stroke"/><path stroke="#6a696a" d="m388.79 266.75-2.83 8.5" vector-effect="non-scaling-stroke"/><path stroke="#535154" d="M385.96 275.25q-1.23 1.4-1.42 3.25" vector-effect="non-scaling-stroke"/><path stroke="#6a696a" d="M384.54 278.5c-8.38 20.8-20.16 40.7-36.02 56.64-8.11 8.15-17.42 18-27.06 24.86" vector-effect="non-scaling-stroke"/><path stroke="#535154" d="M321.46 360q-21.44 15.47-46.21 24.71" vector-effect="non-scaling-stroke"/><path stroke="#6a696a" d="M275.25 384.71q-8.42 3.73-11.24 4.32c-5.87 1.23-12.06 3.43-17.46 4.1q-6.44.8-14.23.9-3.07.04-3.07 3.18" vector-effect="non-scaling-stroke"/><path stroke="#6b6c6f" d="M186.25 397.21q1.39-1.96-1.25-2.22-8.88-.85-17.65-2.45c-6.41-1.18-13.63-3.86-19.96-5.99-5.51-1.86-10.1-3.38-18.55-7.17q-3.66-1.64-17.39-9.08c-20.27-10.98-40.74-30.26-54.6-49.64-10.4-14.55-17.28-27.92-24.59-45.27q-.72-1.72-1.42-4.24c-1.01-3.64-2.58-7.26-3.31-10.67-2.36-11.01-4.31-19.34-4.88-32.57a.73.67-85.4 0 0-.51-.66q-1.22-.32-2.35.25" vector-effect="non-scaling-stroke"/><path stroke="#535154" d="m24.29 176 .96-4.71" vector-effect="non-scaling-stroke"/><path stroke="#b8b4b9" d="M324.15 60.69q-.66 2.09 1.01 4.15" vector-effect="non-scaling-stroke"/><path stroke="#bdbabe" d="M305.82 47.95c-.12 3.46-2.11 1.06-3.8 1.01a1.18 1.05 68.9 0 1-.8-.41q-1.19-1.42-3.22-1.26" vector-effect="non-scaling-stroke"/><path stroke="#e1e3e6" d="M154.5 393.04q2.55.52 2.49-1.42a1.05.69 19.6 0 0-.55-.73q-3.01-1.65-6.43-1.4a.34.26 69.1 0 0-.15.49l1.1 1.77" vector-effect="non-scaling-stroke"/><path stroke="#cfcccf" d="M393.72 261.35c-.97-.59-1.7-.67-2.08.57q-.85 2.76-2.85 4.83" vector-effect="non-scaling-stroke"/><path stroke="#e0dfe1" d="M251.74 27.21q.08.9-.8 1.53a.98.78 37.1 0 1-.89.02q-2.08-1.01-4.3-.05" vector-effect="non-scaling-stroke"/><path stroke="#bdbabe" d="M320.62 363.86q-.6-1.8.84-3.86m63.08-81.5q1.67-1.23 1.42-3.25M279.54 387q.4-1.16-.23-2.11a.97.8-15.7 0 0-.81-.36l-3.25.18" vector-effect="non-scaling-stroke"/><path stroke="#1b7e00" d="M327.54 80.97C285.26 45.17 227.7 28.28 173 40.27q-50.33 11.04-88.57 46.1c-3.57 3.28-4.32 2.4-1.64 7.19 21.8 38.93 42.92 78.36 65.33 116.93a.96.93-46.1 0 1 0 .94L81.53 331.02a2.11 2-54.3 0 0 .34 2.51c38.24 35.84 92.23 57.88 145.15 51.41q56.87-6.96 100.94-44.02a1.09 1.09-35.2 0 0 .24-1.38q-6.31-10.75-12.3-21.71-28.93-53.01-58.12-105.88a2.14 2.14 46.4 0 1 .05-2.15q3.16-5.11 6.05-10.4 31.89-58.31 64.02-116.5a1.55 1.55 34.5 0 0-.36-1.93" vector-effect="non-scaling-stroke"/></g><path fill="#d4d1d4" d="M192 23.79q1.89.1 1.46 1.49a.93.79 1.7 0 1-.69.55q-5.53.99-11.12 1.32c-6 .35-10.66 3.01-17.17 3.94q-3.02.43-4.35.78-22.69 5.88-40.79 15.48-8.75 4.64-21.27 13.72c-2.56 1.86-5.13 4.69-8.66 6.9q-2.99 1.87-6.07 4.63c-29.05 26.12-49.59 60.68-58.09 98.69q-1.38 2.15-.96 4.71-1.26 7.06-1.51 14.22c-.06 1.84-1.02 2.55-2.74 2.53-1.02-8.64-.5-15.54 1.94-24.42 1.22-4.45 1.83-9 3.58-13.21 4.59-11.02 7.78-21.72 13.92-32.86 5.46-9.92 14.76-22.65 20.01-29.28 5.07-6.39 22.09-27.35 28.48-27.5a1.54 1.33 21.7 0 0 .89-.31c4.81-3.92 8.59-8.63 14.49-11.96 3.57-2.01 5.73-3.88 8.67-6.26 3.18-2.58 6.49-2.54 9.6-5.89a1.29 1.25-70.4 0 1 .83-.41c4.15-.4 6.14-3.04 9.22-3.99q2.96-.91 6.12-.78a1.33 1.29 25.9 0 0 .88-.29c4.43-3.54 7.77-3.26 12.55-4a1.89 1.83-68.5 0 0 .88-.4c1.66-1.39 2.93-2.58 5.2-2.91 4.86-.71 10.25-.11 14.3-3.58a1.68 1.52-65.7 0 1 .87-.38q9.75-.91 19.53-.53Z"/><path d="m192 23.79 34 .25-.63 1.56a.37.37 12.8 0 0 .32.5q10.12.69 20.06 2.61 4.6 1.55 9.38 2.34c5.25.88 9.51 2.19 14.91 4.4q2.46 1.01 6.01 2.01 7.43 2.1 21.95 9.83c6.27 4.25 12.81 7.78 19.07 12.2q3.96 2.79 8.09 5.35 13.65 11.06 24.61 22.88c17.83 19.24 30.45 43.49 39.24 68.2 1.46 4.11 2.17 9.27 3.73 13.83q.9 2.63 1.73 14.48a.32.31 72.5 0 0 .48.26l2.09-1.24.17 48.5c-2.24.66-1.59 2.15-1.82 3.82q-2.22 15.81-6.6 31.18l-2.83 8.5q-1.23 1.4-1.42 3.25c-8.38 20.8-20.16 40.7-36.02 56.64-8.11 8.15-17.42 18-27.06 24.86q-21.44 15.47-46.21 24.71-8.42 3.73-11.24 4.32c-5.87 1.23-12.06 3.43-17.46 4.1q-6.44.8-14.23.9-3.07.04-3.07 3.18-21.5.61-43 0 1.39-1.96-1.25-2.22-8.88-.85-17.65-2.45c-6.41-1.18-13.63-3.86-19.96-5.99-5.51-1.86-10.1-3.38-18.55-7.17q-3.66-1.64-17.39-9.08c-20.27-10.98-40.74-30.26-54.6-49.64-10.4-14.55-17.28-27.92-24.59-45.27q-.72-1.72-1.42-4.24c-1.01-3.64-2.58-7.26-3.31-10.67-2.36-11.01-4.31-19.34-4.88-32.57a.73.67-85.4 0 0-.51-.66q-1.22-.32-2.35.25-.41-17.38.25-34.75c1.72.02 2.68-.69 2.74-2.53q.25-7.16 1.51-14.22l.96-4.71c8.5-38.01 29.04-72.57 58.09-98.69q3.08-2.76 6.07-4.63c3.53-2.21 6.1-5.04 8.66-6.9q12.52-9.08 21.27-13.72 18.1-9.6 40.79-15.48 1.33-.35 4.35-.78c6.51-.93 11.17-3.59 17.17-3.94q5.59-.33 11.12-1.32a.93.79 1.7 0 0 .69-.55q.43-1.39-1.46-1.49Zm135.54 57.18C285.26 45.17 227.7 28.28 173 40.27q-50.33 11.04-88.57 46.1c-3.57 3.28-4.32 2.4-1.64 7.19 21.8 38.93 42.92 78.36 65.33 116.93a.96.93-46.1 0 1 0 .94L81.53 331.02a2.11 2-54.3 0 0 .34 2.51c38.24 35.84 92.23 57.88 145.15 51.41q56.87-6.96 100.94-44.02a1.09 1.09-35.2 0 0 .24-1.38q-6.31-10.75-12.3-21.71-28.93-53.01-58.12-105.88a2.14 2.14 46.4 0 1 .05-2.15q3.16-5.11 6.05-10.4 31.89-58.31 64.02-116.5a1.55 1.55 34.5 0 0-.36-1.93Z"/><path fill="#ecedee" d="M251.74 27.21q.08.9-.8 1.53a.98.78 37.1 0 1-.89.02q-2.08-1.01-4.3-.05-9.94-1.92-20.06-2.61a.37.37 12.8 0 1-.32-.5l.63-1.56q8.93-.51 20-.04 3.62.15 5.74 3.21Z"/><path fill="#d4d1d4" d="M251.74 27.21q5.7.4 11.3 1.11c3.31.41 3.9 2.72 6.78 3.47 3.44.88 6.47 2.72 9.73 3.53 8.84 2.17 18.54 7.85 26.27 12.63-.12 3.46-2.11 1.06-3.8 1.01a1.18 1.05 68.9 0 1-.8-.41q-1.19-1.42-3.22-1.26-14.52-7.73-21.95-9.83-3.55-1-6.01-2.01c-5.4-2.21-9.66-3.52-14.91-4.4q-4.78-.79-9.38-2.34 2.22-.96 4.3.05a.98.78 37.1 0 0 .89-.02q.88-.63.8-1.53Z"/><path fill="#35fc00" d="M173 40.27c54.7-11.99 112.26 4.9 154.54 40.7a1.55 1.55 34.5 0 1 .36 1.93q-32.13 58.19-64.02 116.5-2.89 5.29-6.05 10.4a2.14 2.14 46.4 0 0-.05 2.15q29.19 52.87 58.12 105.88 5.99 10.96 12.3 21.71a1.09 1.09-35.2 0 1-.24 1.38q-44.07 37.06-100.94 44.02c-52.92 6.47-106.91-15.57-145.15-51.41a2.11 2-54.3 0 1-.34-2.51l66.59-119.59a.96.93-46.1 0 0 0-.94c-22.41-38.57-43.53-78-65.33-116.93-2.68-4.79-1.93-3.91 1.64-7.19q38.24-35.06 88.57-46.1Z"/><path fill="#a5a2a7" d="M298 47.29q2.03-.16 3.22 1.26a1.18 1.05 68.9 0 0 .8.41c1.69.05 3.68 2.45 3.8-1.01q9.73 5.78 18.33 12.74-.66 2.09 1.01 4.15-4.13-2.56-8.09-5.35c-6.26-4.42-12.8-7.95-19.07-12.2Z"/><path fill="#cac6ca" d="M324.15 60.69c2.02.88 4.17 1.41 5.78 2.96 17.81 17.22 28.77 27.18 36.78 39.65 7.81 12.18 14.05 25.33 20.82 39.15q3.52 7.18 5.18 13.67c2.35 9.22 4.57 16.6 4.33 27.13l-2.09 1.24a.32.31 72.5 0 1-.48-.26q-.83-11.85-1.73-14.48c-1.56-4.56-2.27-9.72-3.73-13.83-8.79-24.71-21.41-48.96-39.24-68.2q-10.96-11.82-24.61-22.88-1.67-2.06-1.01-4.15Z"/><path fill="#a5a2a7" d="m25.25 171.29-.96 4.71q-.42-2.56.96-4.71Z"/><path fill="#d6d8dd" d="m186.25 397.21-18.98.02q-2.37.01-4.2-1.58-3.02-2.64-8.57-2.61 2.55.52 2.49-1.42a1.05.69 19.6 0 0-.55-.73q-3.01-1.65-6.43-1.4a.34.26 69.1 0 0-.15.49l1.1 1.77c-5.07-2.14-10.48-3.49-15.16-5.65q-14.32-6.6-28.14-14.22c-3.86-2.12-8.42-6.05-13.24-8.35q-2.56-1.22-4.25-2.89-18.33-18.1-36.51-36.32a1.52 1.42 19.8 0 1-.42-.82l-.51-3.5a1.39.35 86.4 0 0-.3-.94l-6.59-6.65a2.03 1.58-80.2 0 1-.48-.9c-.87-3.56-3.26-6.92-4.39-9.25q-5.4-11.11-10.88-22.17c-2.4-4.86-3.22-10.41-5.63-15.58-1.71-3.69-.06-9.13-1.89-13.72a.99.84-2.2 0 0-.69-.54q-2.4-.54-2.35-3.25.3-14.93.26-19.5 1.13-.57 2.35-.25a.73.67-85.4 0 1 .51.66c.57 13.23 2.52 21.56 4.88 32.57.73 3.41 2.3 7.03 3.31 10.67q.7 2.52 1.42 4.24c7.31 17.35 14.19 30.72 24.59 45.27 13.86 19.38 34.33 38.66 54.6 49.64q13.73 7.44 17.39 9.08c8.45 3.79 13.04 5.31 18.55 7.17 6.33 2.13 13.55 4.81 19.96 5.99q8.77 1.6 17.65 2.45 2.64.26 1.25 2.22Z"/><path fill="#cac6ca" d="M397.21 231.75q.54 5.52.22 11.02c-.34 5.85-2.67 12.24-3.71 18.58-.97-.59-1.7-.67-2.08.57q-.85 2.76-2.85 4.83 4.38-15.37 6.6-31.18c.23-1.67-.42-3.16 1.82-3.82Z"/><path fill="#d4d1d4" d="M393.72 261.35c-3.46 14.5-8.48 28.55-16.92 40.93q-3.34 4.91-5.42 8.84c-2.87 5.41-5.59 10.87-10.1 15.28q-18.24 17.83-36.25 35.88-1.69 1.7-4.41 1.58-.6-1.8.84-3.86c9.64-6.86 18.95-16.71 27.06-24.86 15.86-15.94 27.64-35.84 36.02-56.64q1.67-1.23 1.42-3.25l2.83-8.5q2-2.07 2.85-4.83c.38-1.24 1.11-1.16 2.08-.57Z"/><path fill="#a5a2a7" d="M385.96 275.25q.25 2.02-1.42 3.25.19-1.85 1.42-3.25ZM321.46 360q-1.44 2.06-.84 3.86-6.2 5.35-13.3 9.52c-2.91 1.71-6.52 5.03-10.56 6.45-5.94 2.09-11.47 4.63-17.22 7.17q.4-1.16-.23-2.11a.97.8-15.7 0 0-.81-.36l-3.25.18q24.77-9.24 46.21-24.71Z"/><path fill="#d4d1d4" d="M279.54 387c-4.55 2.27-8.41 4.43-13.62 5.49-7.93 1.63-15.45 4.94-23.72 4.73q-6.48-.17-12.95-.01 0-3.14 3.07-3.18 7.79-.1 14.23-.9c5.4-.67 11.59-2.87 17.46-4.1q2.82-.59 11.24-4.32l3.25-.18a.97.8-15.7 0 1 .81.36q.63.95.23 2.11Z"/><path fill="#ecedee" d="M154.5 393.04q-2.01-.02-3.54-1.29l-1.1-1.77a.34.26 69.1 0 1 .15-.49q3.42-.25 6.43 1.4a1.05.69 19.6 0 1 .55.73q.06 1.94-2.49 1.42Z"/></svg>